<?xml version="1.0" encoding="UTF-8" standalone="no"?>
<!DOCTYPE svg PUBLIC "-//W3C//DTD SVG 20010904//EN" "http://www.w3.org/TR/2001/REC-SVG-20010904/DTD/svg10.dtd">
<svg version="1.0" xmlns="http://www.w3.org/2000/svg" width="1064.000000pt" height="1079.000000pt" viewBox="0 0 1064.000000 1079.000000" preserveAspectRatio="xMidYMid meet">
<metadata>
Created by potrace 1.16, written by Peter Selinger 2001-2019
</metadata>
<g transform="translate(0.000000,1079.000000) scale(0.100000,-0.100000)" fill="#000000" stroke="none">
<path d="M450 9005 l0 -795 80 0 80 0 2 303 3 302 265 6 c273 6 337 14 425 52 115 50 183 124 228 247 28 78 30 290 3 370 -41 120 -92 184 -192 237 -116 62 -152 67 -541 70 l-353 3 0 -795z m670 625 c125 -18 221 -88 249 -182 7 -24 17 -53 22 -66 29 -74 -14 -230 -85 -311 -30 -33 -110 -69 -180 -81 -34 -6 -162 -9 -286 -8 l-225 3 -3 315 c-1 173 0 320 3 327 5 16 403 18 505 3z"/>
<path d="M1920 9005 l0 -795 80 0 80 0 0 795 0 795 -80 0 -80 0 0 -795z"/>
<path d="M2470 9720 l0 -80 445 0 c245 0 445 -2 445 -5 0 -9 -31 -55 -85 -126 -69 -92 -192 -260 -240 -329 -47 -68 -204 -284 -308 -425 -41 -55 -122 -167 -181 -248 l-106 -149 0 -74 0 -74 565 0 565 0 0 80 0 80 -449 0 c-248 0 -452 3 -454 8 -4 6 23 47 168 247 72 99 372 517 470 655 55 77 116 162 136 188 20 26 57 77 82 114 46 66 47 70 47 143 l0 75 -550 0 -550 0 0 -80z"/>
<path d="M3920 9720 l0 -80 450 0 c248 0 450 -2 450 -4 0 -3 -42 -62 -92 -131 -51 -70 -100 -137 -108 -149 -8 -12 -55 -77 -105 -145 -49 -68 -97 -133 -105 -145 -8 -11 -64 -88 -125 -171 -61 -82 -126 -172 -145 -199 -53 -74 -69 -95 -157 -216 l-83 -113 0 -78 0 -79 565 0 565 0 0 80 0 80 -455 0 c-250 0 -455 2 -455 6 0 8 71 110 182 264 101 139 161 224 248 345 68 97 167 234 215 300 49 67 93 128 191 264 l74 104 0 73 0 74 -555 0 -555 0 0 -80z"/>
<path d="M5410 9005 l0 -795 495 0 495 0 0 80 0 80 -412 2 -413 3 -3 264 c-2 186 1 268 9 277 9 11 78 14 370 14 l359 0 0 75 0 75 -359 0 c-292 0 -361 3 -370 14 -8 9 -11 91 -9 277 l3 264 413 3 412 2 0 80 0 80 -495 0 -495 0 0 -795z"/>
<path d="M6800 9005 l0 -795 80 0 80 0 2 318 3 317 202 3 202 2 87 -132 c84 -129 101 -156 196 -303 24 -38 65 -100 89 -137 l44 -68 93 0 c77 0 92 3 92 16 0 13 -116 198 -199 317 -14 20 -35 52 -46 70 -11 18 -51 82 -90 141 -38 60 -69 111 -68 115 0 3 19 11 40 17 98 29 190 99 239 182 46 78 64 155 64 275 0 255 -88 380 -312 441 -46 13 -123 16 -427 16 l-371 0 0 -795z m739 625 c106 -20 178 -99 202 -221 31 -156 -28 -291 -154 -355 -67 -35 -174 -45 -417 -42 l-205 3 -3 300 c-1 165 0 305 3 312 6 16 494 18 574 3z"/>
<path d="M8310 9005 l0 -795 80 0 80 0 0 795 0 795 -80 0 -80 0 0 -795z"/>
<path d="M9349 9773 c-18 -48 -100 -257 -113 -288 -7 -16 -19 -46 -26 -65 -6 -19 -16 -44 -21 -55 -10 -22 -49 -121 -280 -700 -88 -220 -164 -408 -169 -417 -20 -35 -12 -39 81 -36 l91 3 45 115 c24 63 48 124 53 135 5 11 17 40 25 65 42 118 49 137 63 158 l14 22 334 0 334 0 14 -23 c9 -12 22 -43 31 -67 8 -25 19 -54 25 -65 5 -11 23 -58 41 -105 17 -47 35 -94 40 -105 5 -11 18 -46 29 -77 l21 -58 85 0 c76 0 84 2 84 19 0 18 -42 134 -76 208 -8 17 -14 35 -14 40 -1 4 -9 26 -20 48 -11 22 -19 44 -20 48 0 5 -6 23 -14 40 -8 18 -58 142 -111 277 -53 135 -103 259 -111 277 -8 17 -14 35 -14 40 -1 4 -9 26 -20 48 -11 22 -19 44 -20 48 0 5 -6 23 -14 40 -8 18 -27 64 -42 102 -14 39 -35 89 -45 112 -11 23 -19 45 -19 48 0 4 -6 21 -14 38 -8 18 -25 59 -38 92 l-23 60 -88 3 -87 3 -11 -28z m135 -271 c16 -42 33 -81 36 -87 4 -5 13 -28 19 -50 7 -22 16 -49 21 -60 5 -11 25 -63 45 -115 20 -52 40 -104 45 -115 25 -54 69 -188 64 -196 -6 -10 -527 -13 -537 -3 -5 6 22 93 47 149 7 17 23 55 34 85 91 238 115 299 127 328 8 18 15 37 15 43 0 16 40 99 48 99 4 0 20 -35 36 -78z"/>
<path d="M7635 7460 c-12 -4 -26 -14 -32 -21 -6 -8 -59 -138 -118 -289 -667 -1717 -840 -2163 -856 -2208 -27 -77 -17 -93 83 -141 164 -79 421 -147 651 -172 140 -16 573 -6 707 15 245 39 450 101 639 192 123 60 161 90 161 127 0 13 -257 570 -571 1238 -548 1167 -601 1271 -637 1268 -4 0 -16 -4 -27 -9z m119 -495 c-11 -5 -45 -35 -76 -66 -43 -43 -60 -69 -72 -110 -45 -150 6 -281 145 -370 44 -28 62 -33 130 -37 57 -3 89 0 119 12 40 16 41 16 49 -6 5 -13 120 -257 254 -543 241 -510 245 -520 224 -532 -38 -21 -227 -81 -337 -107 -164 -39 -326 -57 -530 -57 -265 0 -400 17 -637 82 l-112 31 23 62 c13 35 54 139 91 233 l67 171 42 -19 c57 -26 169 -26 230 1 153 65 233 243 175 395 -29 77 -105 156 -176 181 l-49 17 108 281 c60 155 139 358 175 451 l67 170 54 -115 c51 -107 54 -115 36 -125z m212 -421 c-12 -30 -136 -15 -177 22 -73 65 -62 215 19 258 l27 14 68 -141 c37 -78 66 -146 63 -153z m-635 -407 c75 -51 100 -139 61 -217 -35 -70 -127 -104 -202 -74 -22 9 -40 20 -40 24 0 9 98 269 107 283 8 14 40 7 74 -16z m1318 -1024 c61 -124 63 -114 -26 -156 -370 -173 -923 -238 -1378 -161 -161 27 -426 104 -457 133 -5 5 23 87 62 179 9 22 11 22 47 7 52 -22 248 -71 368 -92 80 -14 158 -18 385 -18 254 0 300 3 420 24 157 27 340 77 454 125 45 19 82 35 83 35 2 1 20 -34 42 -76z"/>
<path d="M7961 5905 c-69 -20 -135 -67 -177 -128 -44 -63 -57 -116 -52 -198 8 -113 76 -207 187 -261 70 -34 178 -32 253 5 61 30 124 93 154 155 11 23 20 67 22 115 4 72 2 84 -27 142 -70 141 -216 210 -360 170z m143 -149 c73 -30 112 -108 95 -187 -13 -58 -34 -85 -86 -110 -133 -64 -271 61 -224 203 28 84 131 129 215 94z"/>
<path d="M3112 7348 c-24 -26 -992 -2514 -992 -2550 0 -43 28 -65 137 -111 292 -123 601 -175 968 -164 397 12 714 82 993 220 121 60 152 85 152 125 0 35 -1129 2443 -1161 2478 -28 30 -69 31 -97 2z m109 -353 c27 -58 49 -109 49 -113 0 -4 -16 -16 -36 -27 -69 -37 -133 -144 -141 -235 -8 -87 16 -157 79 -225 90 -99 213 -138 318 -101 25 8 48 12 52 8 7 -7 398 -833 478 -1010 l29 -62 -37 -19 c-92 -46 -334 -110 -512 -136 -256 -37 -581 -28 -809 21 -125 27 -251 62 -265 74 -6 6 154 443 168 457 1 1 27 -7 57 -18 67 -26 152 -22 225 10 154 69 228 260 158 411 -31 67 -107 141 -164 160 -22 7 -43 17 -45 20 -3 4 63 182 146 396 83 214 160 413 170 442 11 28 23 52 25 52 3 0 28 -47 55 -105z m179 -382 c81 -170 81 -170 35 -179 -46 -8 -105 9 -144 42 -63 53 -66 166 -7 229 18 19 38 35 45 35 6 0 38 -57 71 -127z m-562 -573 c46 -28 72 -76 72 -132 0 -60 -11 -87 -49 -126 -22 -22 -45 -33 -77 -38 -45 -6 -118 7 -128 25 -3 4 20 72 50 149 61 157 67 162 132 122z m1315 -1024 c57 -120 58 -110 -25 -152 -163 -82 -468 -160 -728 -185 -264 -25 -615 2 -857 66 -111 29 -253 83 -253 96 0 5 16 50 36 100 29 72 40 89 53 84 9 -4 54 -18 101 -31 423 -123 931 -123 1359 1 67 19 152 48 189 64 37 16 72 29 78 30 7 1 28 -32 47 -73z"/>
<path d="M3288 5835 c-57 -18 -150 -101 -180 -159 -29 -57 -36 -167 -14 -234 23 -68 92 -144 164 -179 46 -23 70 -28 127 -28 87 1 151 28 217 92 152 149 108 398 -88 493 -60 30 -158 36 -226 15z m172 -147 c66 -34 85 -66 85 -146 0 -76 -23 -120 -78 -149 -47 -24 -127 -21 -171 7 -108 66 -98 238 18 291 54 25 93 24 146 -3z"/>
<path d="M5010 7339 c-172 -16 -370 -60 -476 -104 -66 -28 -71 2 130 -793 102 -400 248 -979 326 -1287 77 -308 148 -579 156 -603 17 -47 47 -62 92 -46 20 7 178 250 704 1084 787 1247 768 1216 768 1252 0 15 -10 38 -22 52 -67 73 -379 236 -583 304 -365 122 -761 173 -1095 141z m568 -164 c153 -22 320 -61 472 -111 142 -46 362 -150 443 -210 l48 -35 -23 -37 c-12 -20 -37 -60 -55 -89 l-32 -51 -123 62 c-254 129 -507 203 -838 248 -139 18 -471 15 -600 -6 -58 -10 -121 -20 -140 -23 l-35 -5 -26 101 -26 100 46 15 c48 16 244 52 321 60 90 8 468 -4 568 -19z m-123 -370 c163 -19 405 -75 554 -128 127 -45 309 -133 324 -158 7 -12 -19 -61 -117 -217 l-127 -202 -62 33 c-55 28 -71 32 -147 32 -69 0 -94 -4 -133 -24 -71 -35 -104 -67 -140 -135 -28 -54 -32 -70 -32 -146 0 -79 3 -90 36 -150 25 -47 49 -74 85 -99 27 -18 48 -39 48 -47 -2 -15 -497 -804 -502 -799 -3 3 -60 220 -62 232 0 1 29 16 64 33 71 33 103 66 144 144 21 42 26 65 26 131 1 71 -3 87 -31 140 -39 75 -67 104 -140 141 -49 25 -70 29 -138 30 l-80 0 -146 575 c-94 371 -141 576 -135 580 12 7 173 37 226 42 99 10 370 5 485 -8z m495 -795 c8 -5 23 -17 33 -28 18 -19 16 -23 -63 -150 -92 -145 -93 -146 -156 -81 -35 35 -38 45 -42 103 -4 64 -4 64 38 110 24 25 57 50 74 55 32 9 89 5 116 -9z m-752 -570 c57 -41 75 -80 70 -148 -4 -50 -9 -59 -51 -99 -25 -23 -52 -43 -60 -43 -10 0 -25 43 -51 145 -20 79 -36 151 -36 160 0 28 81 19 128 -15z"/>
<path d="M5160 6641 c-14 -5 -44 -17 -66 -29 -168 -86 -211 -317 -89 -476 14 -18 53 -49 88 -67 57 -31 69 -34 147 -34 142 0 225 52 284 175 45 96 43 172 -7 272 -40 82 -76 114 -166 148 -52 20 -143 25 -191 11z m177 -170 c45 -32 73 -83 73 -131 0 -48 -28 -99 -73 -131 -52 -38 -127 -40 -178 -6 -100 67 -106 188 -13 265 33 28 46 32 95 32 46 0 63 -5 96 -29z"/>
<path d="M560 4075 l0 -45 4945 0 4945 0 0 45 0 45 -4945 0 -4945 0 0 -45z"/>
<path d="M1710 3352 c-154 -51 -231 -142 -247 -292 -7 -68 10 -167 37 -220 41 -79 130 -138 300 -198 158 -56 251 -105 302 -159 25 -28 52 -69 59 -91 28 -93 -23 -201 -121 -256 -54 -30 -58 -31 -185 -30 -115 0 -139 3 -210 28 -44 15 -105 42 -137 61 -31 19 -59 35 -62 35 -3 0 -6 -35 -6 -79 l0 -78 73 -31 c132 -55 169 -64 282 -69 190 -9 343 31 416 109 111 118 132 345 43 475 -59 86 -104 110 -441 237 -79 30 -162 95 -190 150 -24 47 -21 135 6 179 28 45 94 94 146 108 51 14 182 13 236 -1 23 -7 80 -29 127 -51 47 -21 86 -39 88 -39 2 0 4 33 4 73 l0 74 -92 38 c-91 38 -97 39 -233 42 -115 2 -150 0 -195 -15z"/>
<path d="M6992 3359 c-69 -12 -175 -54 -230 -91 -46 -32 -112 -110 -142 -167 -93 -183 -112 -522 -41 -750 82 -263 256 -381 566 -381 245 0 400 72 508 236 77 117 121 375 100 587 -34 335 -179 515 -457 566 -69 13 -227 13 -304 0z m263 -130 c247 -45 364 -244 352 -593 -9 -271 -78 -412 -235 -485 -246 -113 -539 -28 -633 184 -74 168 -78 445 -9 641 68 195 282 298 525 253z"/>
<path d="M8318 3360 c-59 -15 -150 -65 -185 -102 -60 -62 -78 -119 -78 -243 0 -99 3 -115 27 -165 15 -31 40 -67 55 -82 31 -29 166 -99 228 -118 64 -20 225 -90 265 -115 77 -48 121 -122 121 -200 0 -88 -46 -157 -141 -206 -40 -22 -58 -24 -170 -24 -111 0 -134 3 -206 28 -45 15 -107 43 -139 62 -32 19 -61 35 -66 35 -5 0 -9 -34 -9 -75 l0 -75 40 -20 c23 -11 78 -35 123 -53 80 -31 85 -31 247 -31 163 0 166 0 247 32 59 24 91 44 117 72 116 128 137 343 48 471 -64 91 -132 130 -369 214 -202 72 -283 149 -283 270 1 44 32 107 71 139 61 52 110 67 213 67 102 0 148 -12 260 -67 39 -19 74 -34 78 -34 5 0 8 33 6 72 l-3 72 -90 40 c-89 39 -91 40 -230 42 -77 2 -157 -1 -177 -6z"/>
<path d="M3017 3333 c-3 -10 -33 -85 -67 -168 -34 -82 -74 -184 -90 -225 -36 -95 -95 -242 -120 -300 -44 -102 -250 -630 -250 -640 0 -7 25 -10 76 -8 l75 3 45 115 c25 63 59 151 76 195 48 125 18 115 338 115 251 0 278 -2 292 -17 8 -10 31 -61 51 -113 20 -52 54 -140 76 -195 l39 -100 76 -3 c42 -2 76 1 76 6 0 9 -202 523 -240 612 -11 25 -67 167 -125 315 -59 149 -121 305 -138 347 l-32 78 -76 0 c-64 0 -78 -3 -82 -17z m121 -248 c11 -33 30 -82 41 -110 47 -111 151 -395 151 -409 0 -14 -28 -16 -228 -16 -126 0 -231 2 -234 5 -5 6 23 84 132 365 28 74 61 161 73 193 25 67 34 64 65 -28z"/>
<path d="M3940 2670 l0 -680 70 0 70 0 0 565 c0 311 3 565 8 565 6 -1 150 -199 257 -355 17 -24 68 -97 115 -162 218 -306 379 -532 405 -570 l28 -43 83 0 84 0 0 680 0 680 -70 0 -70 0 0 -565 c0 -311 -3 -565 -7 -565 -5 0 -16 12 -25 28 -15 24 -119 172 -195 277 -16 22 -74 103 -128 180 -54 77 -120 169 -145 205 -26 36 -106 149 -179 253 l-133 187 -84 0 -84 0 0 -680z"/>
<path d="M5290 3285 l0 -65 238 -2 237 -3 3 -612 2 -613 70 0 70 0 0 603 c0 456 3 606 12 615 9 9 76 12 240 12 l228 0 0 65 0 65 -550 0 -550 0 0 -65z"/>
</g>
</svg>